<svg xmlns="http://www.w3.org/2000/svg" xmlns:xlink="http://www.w3.org/1999/xlink" width="993" zoomAndPan="magnify" viewBox="0 0 744.75 251.999989" height="336" preserveAspectRatio="xMidYMid meet" version="1.2"><defs><clipPath id="767bb2bb9b"><path d="M 25.191406 31.964844 L 220 31.964844 L 220 226.898438 L 25.191406 226.898438 Z M 25.191406 31.964844 "/></clipPath></defs><g id="098d7bff3e"><g clip-rule="nonzero" clip-path="url(#767bb2bb9b)"><path style=" stroke:none;fill-rule:nonzero;fill:#75fb94;fill-opacity:1;" d="M 122.589844 31.964844 C 68.796875 31.964844 25.191406 75.570312 25.191406 129.359375 C 25.191406 183.152344 68.796875 226.757812 122.589844 226.757812 C 176.378906 226.757812 219.984375 183.152344 219.984375 129.359375 C 219.984375 75.570312 176.378906 31.964844 122.589844 31.964844 Z M 180.515625 166.914062 C 179.519531 177.425781 174.796875 187.6875 167.148438 195.011719 C 163.933594 198.089844 159.085938 200.625 154.996094 202.304688 C 152.425781 203.359375 149.578125 204.21875 146.257812 205.050781 C 144.480469 205.496094 143.113281 203.445312 144.246094 202.007812 C 148.6875 196.375 151.925781 188.628906 151.804688 181.449219 C 151.585938 168.617188 145.152344 157.691406 133.851562 152.410156 C 132.96875 152 131.917969 152.578125 131.878906 153.554688 C 131.765625 156.335938 130.851562 161.191406 127.308594 166.257812 C 125.21875 169.242188 120.109375 172.414062 117.824219 173.730469 C 116.984375 174.214844 115.949219 173.5625 116 172.597656 C 116.152344 169.882812 116.265625 167.75 114.164062 163.398438 C 113.839844 162.726562 109.941406 157.027344 109.234375 157.453125 C 95.910156 165.445312 88.851562 179.332031 92.621094 194.503906 C 92.910156 195.671875 94.105469 199.027344 95.445312 202.015625 C 96.152344 203.597656 94.605469 205.222656 92.984375 204.613281 C 80.871094 200.054688 71.621094 190.761719 67.078125 178.136719 C 63.128906 167.15625 63.488281 154.691406 68.058594 143.957031 C 72.5625 133.386719 80.730469 124.902344 88.09375 116.082031 C 103.503906 97.617188 108.398438 78.1875 102.96875 55.128906 C 102.722656 54.089844 103.800781 53.246094 104.738281 53.761719 C 107.398438 55.230469 110.875 57.027344 111.828125 57.597656 C 130.433594 68.695312 145.726562 84.335938 158.449219 101.863281 C 171.363281 119.652344 182.859375 142.265625 180.515625 166.914062 Z M 180.515625 166.914062 "/></g><g style="fill:#ffffff;fill-opacity:1;"><g transform="translate(242.550093, 163.396502)"><path style="stroke:none" d="M 23.359375 -14.5 L 42.15625 -14.5 L 42.15625 0 L 6.140625 0 L 6.140625 -79.53125 L 23.359375 -79.53125 Z M 23.359375 -14.5 "/></g></g><g style="fill:#ffffff;fill-opacity:1;"><g transform="translate(286.675701, 163.396502)"><path style="stroke:none" d="M 23.359375 -14.265625 L 42.40625 -14.265625 L 42.40625 0 L 6.140625 0 L 6.140625 -79.53125 L 42.40625 -79.53125 L 42.40625 -65.515625 L 23.359375 -65.515625 L 23.359375 -46.828125 L 41.171875 -46.828125 L 41.171875 -33.3125 L 23.359375 -33.3125 Z M 23.359375 -14.265625 "/></g></g><g style="fill:#ffffff;fill-opacity:1;"><g transform="translate(332.890829, 163.396502)"><path style="stroke:none" d="M 37.734375 -80.765625 C 47.898438 -80.765625 52.984375 -75.351562 52.984375 -64.53125 L 52.984375 0 L 35.765625 0 L 35.765625 -26.671875 L 23.359375 -26.671875 L 23.359375 0 L 6.140625 0 L 6.140625 -64.53125 C 6.140625 -75.351562 11.222656 -80.765625 21.390625 -80.765625 Z M 23.359375 -39.953125 L 35.765625 -39.953125 L 35.765625 -66.625 C 35.765625 -67.28125 35.539062 -67.851562 35.09375 -68.34375 C 34.644531 -68.832031 34.09375 -69.078125 33.4375 -69.078125 L 25.6875 -69.078125 C 25.03125 -69.078125 24.476562 -68.832031 24.03125 -68.34375 C 23.582031 -67.851562 23.359375 -67.28125 23.359375 -66.625 Z M 23.359375 -39.953125 "/></g></g><g style="fill:#ffffff;fill-opacity:1;"><g transform="translate(392.503421, 163.396502)"><path style="stroke:none" d="M 37.734375 -79.53125 C 47.898438 -79.53125 52.984375 -74.125 52.984375 -63.3125 L 52.984375 -16.21875 C 52.984375 -5.40625 47.898438 0 37.734375 0 L 6.140625 0 L 6.140625 -79.53125 Z M 35.765625 -14.265625 L 35.765625 -65.390625 C 35.765625 -66.046875 35.539062 -66.617188 35.09375 -67.109375 C 34.644531 -67.609375 34.09375 -67.859375 33.4375 -67.859375 L 23.359375 -67.859375 L 23.359375 -11.796875 L 33.4375 -11.796875 C 34.09375 -11.796875 34.644531 -12.039062 35.09375 -12.53125 C 35.539062 -13.03125 35.765625 -13.609375 35.765625 -14.265625 Z M 35.765625 -14.265625 "/></g></g><g style="fill:#ffffff;fill-opacity:1;"><g transform="translate(452.116014, 163.396502)"><path style="stroke:none" d="M 23.359375 -31.21875 L 23.359375 0 L 6.140625 0 L 6.140625 -79.53125 L 42.046875 -79.53125 L 42.046875 -64.65625 L 23.359375 -64.65625 L 23.359375 -45.609375 L 40.8125 -45.609375 L 40.8125 -31.21875 Z M 23.359375 -31.21875 "/></g></g><g style="fill:#ffffff;fill-opacity:1;"><g transform="translate(498.085318, 163.396502)"><path style="stroke:none" d="M 23.359375 -14.5 L 42.15625 -14.5 L 42.15625 0 L 6.140625 0 L 6.140625 -79.53125 L 23.359375 -79.53125 Z M 23.359375 -14.5 "/></g></g><g style="fill:#ffffff;fill-opacity:1;"><g transform="translate(542.210925, 163.396502)"><path style="stroke:none" d="M 37.734375 -80.765625 C 47.898438 -80.765625 52.984375 -75.351562 52.984375 -64.53125 L 52.984375 0 L 35.765625 0 L 35.765625 -26.671875 L 23.359375 -26.671875 L 23.359375 0 L 6.140625 0 L 6.140625 -64.53125 C 6.140625 -75.351562 11.222656 -80.765625 21.390625 -80.765625 Z M 23.359375 -39.953125 L 35.765625 -39.953125 L 35.765625 -66.625 C 35.765625 -67.28125 35.539062 -67.851562 35.09375 -68.34375 C 34.644531 -68.832031 34.09375 -69.078125 33.4375 -69.078125 L 25.6875 -69.078125 C 25.03125 -69.078125 24.476562 -68.832031 24.03125 -68.34375 C 23.582031 -67.851562 23.359375 -67.28125 23.359375 -66.625 Z M 23.359375 -39.953125 "/></g></g><g style="fill:#ffffff;fill-opacity:1;"><g transform="translate(601.823518, 163.396502)"><path style="stroke:none" d="M 23.359375 -32.578125 L 23.359375 0 L 6.140625 0 L 6.140625 -79.53125 L 36.75 -79.53125 C 46.914062 -79.53125 52 -74.125 52 -63.3125 L 52 -54.078125 C 52 -47.523438 49.660156 -43.347656 44.984375 -41.546875 C 49.085938 -40.066406 51.140625 -36.707031 51.140625 -31.46875 L 51.140625 0 L 33.921875 0 L 33.921875 -30.109375 C 33.921875 -31.753906 33.144531 -32.578125 31.59375 -32.578125 Z M 23.359375 -67.859375 L 23.359375 -44.625 L 32.453125 -44.625 C 33.109375 -44.625 33.660156 -44.867188 34.109375 -45.359375 C 34.554688 -45.847656 34.78125 -46.421875 34.78125 -47.078125 L 34.78125 -65.390625 C 34.78125 -66.046875 34.554688 -66.617188 34.109375 -67.109375 C 33.660156 -67.609375 33.109375 -67.859375 32.453125 -67.859375 Z M 23.359375 -67.859375 "/></g></g><g style="fill:#ffffff;fill-opacity:1;"><g transform="translate(658.732051, 163.396502)"><path style="stroke:none" d="M 23.359375 -14.265625 L 42.40625 -14.265625 L 42.40625 0 L 6.140625 0 L 6.140625 -79.53125 L 42.40625 -79.53125 L 42.40625 -65.515625 L 23.359375 -65.515625 L 23.359375 -46.828125 L 41.171875 -46.828125 L 41.171875 -33.3125 L 23.359375 -33.3125 Z M 23.359375 -14.265625 "/></g></g><g style="fill:#ffffff;fill-opacity:1;"><g transform="translate(247.284354, 198.960544)"><path style="stroke:none" d="M 14.1875 0 L 11.125 0 L 10 -3.40625 L 4.34375 -3.40625 L 3.234375 0 L 0.21875 0 L 5.328125 -14.796875 L 9.078125 -14.796875 Z M 7.03125 -11.703125 L 5.125 -5.875 L 9.203125 -5.875 L 7.28125 -11.703125 Z M 7.03125 -11.703125 "/></g></g><g style="fill:#ffffff;fill-opacity:1;"><g transform="translate(267.910886, 198.960544)"><path style="stroke:none" d="M 4.84375 0 L 1.921875 0 L 1.921875 -14.796875 L 4.84375 -14.796875 Z M 4.84375 0 "/></g></g><g style="fill:#ffffff;fill-opacity:1;"><g transform="translate(280.901965, 198.960544)"><path style="stroke:none" d="M 7.078125 -5.953125 L 0.875 -5.953125 L 0.875 -8.421875 L 7.078125 -8.421875 Z M 7.078125 -5.953125 "/></g></g><g style="fill:#ffffff;fill-opacity:1;"><g transform="translate(295.096514, 198.960544)"><path style="stroke:none" d="M 7.640625 -14.796875 C 8.691406 -14.796875 9.59375 -14.597656 10.34375 -14.203125 C 11.101562 -13.816406 11.675781 -13.273438 12.0625 -12.578125 C 12.445312 -11.878906 12.640625 -11.066406 12.640625 -10.140625 C 12.640625 -9.222656 12.445312 -8.414062 12.0625 -7.71875 C 11.675781 -7.019531 11.101562 -6.476562 10.34375 -6.09375 C 9.59375 -5.707031 8.691406 -5.515625 7.640625 -5.515625 L 4.84375 -5.515625 L 4.84375 0 L 1.921875 0 L 1.921875 -14.796875 Z M 7.25 -7.828125 C 8.875 -7.828125 9.6875 -8.597656 9.6875 -10.140625 C 9.6875 -11.691406 8.875 -12.46875 7.25 -12.46875 L 4.84375 -12.46875 L 4.84375 -7.828125 Z M 7.25 -7.828125 "/></g></g><g style="fill:#ffffff;fill-opacity:1;"><g transform="translate(314.822974, 198.960544)"><path style="stroke:none" d="M 8.0625 0.21875 C 6.707031 0.21875 5.507812 -0.0546875 4.46875 -0.609375 C 3.4375 -1.171875 2.625 -2.019531 2.03125 -3.15625 C 1.445312 -4.289062 1.15625 -5.703125 1.15625 -7.390625 C 1.15625 -9.085938 1.445312 -10.503906 2.03125 -11.640625 C 2.625 -12.773438 3.4375 -13.617188 4.46875 -14.171875 C 5.507812 -14.722656 6.707031 -15 8.0625 -15 C 9.414062 -15 10.609375 -14.722656 11.640625 -14.171875 C 12.671875 -13.628906 13.476562 -12.785156 14.0625 -11.640625 C 14.644531 -10.503906 14.9375 -9.085938 14.9375 -7.390625 C 14.9375 -5.703125 14.644531 -4.285156 14.0625 -3.140625 C 13.476562 -2.003906 12.671875 -1.160156 11.640625 -0.609375 C 10.609375 -0.0546875 9.414062 0.21875 8.0625 0.21875 Z M 8.0625 -2.328125 C 9.3125 -2.328125 10.265625 -2.726562 10.921875 -3.53125 C 11.585938 -4.34375 11.921875 -5.628906 11.921875 -7.390625 C 11.921875 -9.160156 11.585938 -10.445312 10.921875 -11.25 C 10.265625 -12.0625 9.3125 -12.46875 8.0625 -12.46875 C 6.800781 -12.46875 5.835938 -12.0625 5.171875 -11.25 C 4.503906 -10.445312 4.171875 -9.160156 4.171875 -7.390625 C 4.171875 -5.628906 4.503906 -4.34375 5.171875 -3.53125 C 5.835938 -2.726562 6.800781 -2.328125 8.0625 -2.328125 Z M 8.0625 -2.328125 "/></g></g><g style="fill:#ffffff;fill-opacity:1;"><g transform="translate(337.148521, 198.960544)"><path style="stroke:none" d="M 7.0625 0 L 3.796875 0 L 0.40625 -14.796875 L 3.3125 -14.796875 L 5.546875 -4.390625 L 5.8125 -4.390625 L 8.453125 -14.796875 L 10.953125 -14.796875 L 13.65625 -4.390625 L 13.90625 -4.390625 L 16.15625 -14.796875 L 18.96875 -14.796875 L 15.59375 0 L 12.3125 0 L 9.71875 -9.546875 L 9.515625 -9.546875 Z M 7.0625 0 "/></g></g><g style="fill:#ffffff;fill-opacity:1;"><g transform="translate(362.7204, 198.960544)"><path style="stroke:none" d="M 4.84375 -6.5 L 4.84375 -2.453125 L 11.90625 -2.453125 L 11.90625 0 L 1.921875 0 L 1.921875 -14.796875 L 11.75 -14.796875 L 11.75 -12.34375 L 4.84375 -12.34375 L 4.84375 -8.875 L 10.875 -8.875 L 10.875 -6.5 Z M 4.84375 -6.5 "/></g></g><g style="fill:#ffffff;fill-opacity:1;"><g transform="translate(381.647917, 198.960544)"><path style="stroke:none" d="M 1.921875 0 L 1.921875 -14.796875 L 7.859375 -14.796875 C 9.390625 -14.796875 10.546875 -14.441406 11.328125 -13.734375 C 12.109375 -13.023438 12.5 -12.050781 12.5 -10.8125 C 12.5 -9.914062 12.269531 -9.179688 11.8125 -8.609375 C 11.351562 -8.035156 10.671875 -7.597656 9.765625 -7.296875 L 9.765625 -7.078125 C 10.234375 -6.878906 10.609375 -6.578125 10.890625 -6.171875 C 11.179688 -5.773438 11.457031 -5.1875 11.71875 -4.40625 L 13.1875 0 L 10.1875 0 L 8.734375 -4.421875 C 8.585938 -4.867188 8.421875 -5.210938 8.234375 -5.453125 C 8.054688 -5.703125 7.820312 -5.878906 7.53125 -5.984375 C 7.25 -6.097656 6.875 -6.15625 6.40625 -6.15625 L 4.84375 -6.15625 L 4.84375 0 Z M 7.5 -8.484375 C 8.914062 -8.484375 9.625 -9.140625 9.625 -10.453125 C 9.625 -11.796875 8.914062 -12.46875 7.5 -12.46875 L 4.84375 -12.46875 L 4.84375 -8.484375 Z M 7.5 -8.484375 "/></g></g><g style="fill:#ffffff;fill-opacity:1;"><g transform="translate(401.687885, 198.960544)"><path style="stroke:none" d="M 4.84375 -6.5 L 4.84375 -2.453125 L 11.90625 -2.453125 L 11.90625 0 L 1.921875 0 L 1.921875 -14.796875 L 11.75 -14.796875 L 11.75 -12.34375 L 4.84375 -12.34375 L 4.84375 -8.875 L 10.875 -8.875 L 10.875 -6.5 Z M 4.84375 -6.5 "/></g></g><g style="fill:#ffffff;fill-opacity:1;"><g transform="translate(420.615403, 198.960544)"><path style="stroke:none" d="M 7.25 -14.796875 C 9.644531 -14.796875 11.472656 -14.171875 12.734375 -12.921875 C 14.003906 -11.679688 14.640625 -9.835938 14.640625 -7.390625 C 14.640625 -4.953125 14.003906 -3.109375 12.734375 -1.859375 C 11.472656 -0.617188 9.644531 0 7.25 0 L 1.921875 0 L 1.921875 -14.796875 Z M 7.078125 -2.453125 C 8.597656 -2.453125 9.734375 -2.84375 10.484375 -3.625 C 11.242188 -4.40625 11.625 -5.660156 11.625 -7.390625 C 11.625 -9.128906 11.242188 -10.382812 10.484375 -11.15625 C 9.734375 -11.9375 8.597656 -12.328125 7.078125 -12.328125 L 4.84375 -12.328125 L 4.84375 -2.453125 Z M 7.078125 -2.453125 "/></g></g><g style="fill:#ffffff;fill-opacity:1;"><g transform="translate(442.637554, 198.960544)"><path style="stroke:none" d=""/></g></g><g style="fill:#ffffff;fill-opacity:1;"><g transform="translate(453.737458, 198.960544)"><path style="stroke:none" d="M 4.84375 -14.796875 L 4.84375 -2.453125 L 11.5 -2.453125 L 11.5 0 L 1.921875 0 L 1.921875 -14.796875 Z M 4.84375 -14.796875 "/></g></g><g style="fill:#ffffff;fill-opacity:1;"><g transform="translate(471.926725, 198.960544)"><path style="stroke:none" d="M 4.84375 -6.5 L 4.84375 -2.453125 L 11.90625 -2.453125 L 11.90625 0 L 1.921875 0 L 1.921875 -14.796875 L 11.75 -14.796875 L 11.75 -12.34375 L 4.84375 -12.34375 L 4.84375 -8.875 L 10.875 -8.875 L 10.875 -6.5 Z M 4.84375 -6.5 "/></g></g><g style="fill:#ffffff;fill-opacity:1;"><g transform="translate(490.854254, 198.960544)"><path style="stroke:none" d="M 14.1875 0 L 11.125 0 L 10 -3.40625 L 4.34375 -3.40625 L 3.234375 0 L 0.21875 0 L 5.328125 -14.796875 L 9.078125 -14.796875 Z M 7.03125 -11.703125 L 5.125 -5.875 L 9.203125 -5.875 L 7.28125 -11.703125 Z M 7.03125 -11.703125 "/></g></g><g style="fill:#ffffff;fill-opacity:1;"><g transform="translate(511.480775, 198.960544)"><path style="stroke:none" d="M 7.25 -14.796875 C 9.644531 -14.796875 11.472656 -14.171875 12.734375 -12.921875 C 14.003906 -11.679688 14.640625 -9.835938 14.640625 -7.390625 C 14.640625 -4.953125 14.003906 -3.109375 12.734375 -1.859375 C 11.472656 -0.617188 9.644531 0 7.25 0 L 1.921875 0 L 1.921875 -14.796875 Z M 7.078125 -2.453125 C 8.597656 -2.453125 9.734375 -2.84375 10.484375 -3.625 C 11.242188 -4.40625 11.625 -5.660156 11.625 -7.390625 C 11.625 -9.128906 11.242188 -10.382812 10.484375 -11.15625 C 9.734375 -11.9375 8.597656 -12.328125 7.078125 -12.328125 L 4.84375 -12.328125 L 4.84375 -2.453125 Z M 7.078125 -2.453125 "/></g></g><g style="fill:#ffffff;fill-opacity:1;"><g transform="translate(533.502915, 198.960544)"><path style="stroke:none" d=""/></g></g><g style="fill:#ffffff;fill-opacity:1;"><g transform="translate(544.602841, 198.960544)"><path style="stroke:none" d="M 4.609375 0 L 1.921875 0 L 1.921875 -14.796875 L 5.75 -14.796875 L 9.484375 -3.921875 L 9.703125 -3.921875 L 13.421875 -14.796875 L 17.15625 -14.796875 L 17.15625 0 L 14.390625 0 L 14.390625 -9.765625 L 14.140625 -9.8125 L 10.71875 0 L 8.28125 0 L 4.859375 -9.8125 L 4.609375 -9.765625 Z M 4.609375 0 "/></g></g><g style="fill:#ffffff;fill-opacity:1;"><g transform="translate(569.901675, 198.960544)"><path style="stroke:none" d="M 7.1875 0.21875 C 5.945312 0.21875 4.875 -0.0625 3.96875 -0.625 C 3.070312 -1.195312 2.378906 -2.050781 1.890625 -3.1875 C 1.398438 -4.320312 1.15625 -5.722656 1.15625 -7.390625 C 1.15625 -9.078125 1.445312 -10.488281 2.03125 -11.625 C 2.625 -12.757812 3.441406 -13.601562 4.484375 -14.15625 C 5.523438 -14.71875 6.734375 -15 8.109375 -15 C 9.523438 -15 10.734375 -14.734375 11.734375 -14.203125 C 12.734375 -13.679688 13.4375 -12.898438 13.84375 -11.859375 L 11.703125 -10.578125 L 11.453125 -10.578125 C 11.148438 -11.242188 10.722656 -11.726562 10.171875 -12.03125 C 9.617188 -12.332031 8.929688 -12.484375 8.109375 -12.484375 C 6.835938 -12.484375 5.863281 -12.078125 5.1875 -11.265625 C 4.507812 -10.460938 4.171875 -9.171875 4.171875 -7.390625 C 4.171875 -5.609375 4.484375 -4.3125 5.109375 -3.5 C 5.742188 -2.6875 6.679688 -2.28125 7.921875 -2.28125 C 8.984375 -2.28125 9.765625 -2.519531 10.265625 -3 C 10.773438 -3.476562 11.03125 -4.195312 11.03125 -5.15625 L 11.03125 -5.78125 L 7.53125 -5.78125 L 7.53125 -8.171875 L 13.9375 -8.171875 L 13.9375 0 L 11.15625 0 L 11.15625 -1.984375 L 10.9375 -2.015625 C 10.632812 -1.304688 10.171875 -0.753906 9.546875 -0.359375 C 8.929688 0.0234375 8.144531 0.21875 7.1875 0.21875 Z M 7.1875 0.21875 "/></g></g><g style="fill:#ffffff;fill-opacity:1;"><g transform="translate(591.539514, 198.960544)"><path style="stroke:none" d="M 4.609375 0 L 1.921875 0 L 1.921875 -14.796875 L 5.75 -14.796875 L 9.484375 -3.921875 L 9.703125 -3.921875 L 13.421875 -14.796875 L 17.15625 -14.796875 L 17.15625 0 L 14.390625 0 L 14.390625 -9.765625 L 14.140625 -9.8125 L 10.71875 0 L 8.28125 0 L 4.859375 -9.8125 L 4.609375 -9.765625 Z M 4.609375 0 "/></g></g><g style="fill:#ffffff;fill-opacity:1;"><g transform="translate(616.838325, 198.960544)"><path style="stroke:none" d="M 11.859375 -14.796875 L 11.859375 -12.328125 L 7.59375 -12.328125 L 7.59375 0 L 4.671875 0 L 4.671875 -12.328125 L 0.40625 -12.328125 L 0.40625 -14.796875 Z M 11.859375 -14.796875 "/></g></g></g></svg>